<svg width="80" height="62" viewBox="0 0 80 62" fill="none" xmlns="http://www.w3.org/2000/svg">
<path d="M0 20C0 8.9543 8.9543 0 20 0H59.7437C70.7894 0 79.7437 8.9543 79.7437 20V42C79.7437 53.0457 70.7894 62 59.7437 62H20C8.95431 62 0 53.0457 0 42V20Z" fill="#ECFFDA"/>
<path d="M35.8674 35C39.4573 35 42.3674 32.0899 42.3674 28.5C42.3674 24.9101 39.4573 22 35.8674 22C32.2776 22 29.3674 24.9101 29.3674 28.5C29.3674 32.0899 32.2776 35 35.8674 35Z" stroke="#8CB040" stroke-width="2" stroke-miterlimit="10"/>
<path d="M44.2924 22.2375C44.867 22.0817 45.4596 22.0018 46.0549 22C47.7788 22 49.4321 22.6848 50.6511 23.9038C51.8701 25.1228 52.5549 26.7761 52.5549 28.5C52.5549 30.2239 51.8701 31.8772 50.6511 33.0962C49.4321 34.3152 47.7788 35 46.0549 35" stroke="#8CB040" stroke-width="2" stroke-linecap="round" stroke-linejoin="round"/>
<path d="M26.8674 39.675C27.8824 38.2307 29.23 37.0519 30.7964 36.2382C32.3629 35.4244 34.1022 34.9996 35.8674 34.9996C37.6327 34.9996 39.372 35.4244 40.9384 36.2382C42.5049 37.0519 43.8525 38.2307 44.8674 39.675" stroke="#8CB040" stroke-width="2" stroke-linecap="round" stroke-linejoin="round"/>
<path d="M46.0549 35C47.8203 34.9989 49.56 35.4232 51.1266 36.237C52.6932 37.0508 54.0407 38.2301 55.0549 39.675" stroke="#8CB040" stroke-width="2" stroke-linecap="round" stroke-linejoin="round"/>
</svg>
