<svg width="80" height="62" viewBox="0 0 80 62" fill="none" xmlns="http://www.w3.org/2000/svg">
<rect width="79.7437" height="62" rx="20" fill="#DAE6FF"/>
<path d="M40.1474 18V44" stroke="#1090CB" stroke-width="2" stroke-linecap="round" stroke-linejoin="round"/>
<path d="M47.1474 26C47.1474 25.3434 47.018 24.6932 46.7668 24.0866C46.5155 23.48 46.1472 22.9288 45.6829 22.4645C45.2186 22.0002 44.6674 21.6319 44.0608 21.3806C43.4541 21.1293 42.804 21 42.1474 21H37.6474C36.3213 21 35.0495 21.5268 34.1118 22.4645C33.1741 23.4022 32.6474 24.6739 32.6474 26C32.6474 27.3261 33.1741 28.5979 34.1118 29.5355C35.0495 30.4732 36.3213 31 37.6474 31H43.1474C44.4734 31 45.7452 31.5268 46.6829 32.4645C47.6206 33.4022 48.1474 34.6739 48.1474 36C48.1474 37.3261 47.6206 38.5979 46.6829 39.5355C45.7452 40.4732 44.4734 41 43.1474 41H37.1474C35.8213 41 34.5495 40.4732 33.6118 39.5355C32.6741 38.5979 32.1474 37.3261 32.1474 36" stroke="#1090CB" stroke-width="2" stroke-linecap="round" stroke-linejoin="round"/>
</svg>
