<svg width="80" height="22" viewBox="0 0 80 22" fill="none" xmlns="http://www.w3.org/2000/svg">
<path d="M5.82634 17.172H12.3223V21H0.867336V0.641999H5.82634V17.172ZM24.3156 21.203C22.4016 21.203 20.6423 20.7583 19.0376 19.869C17.4523 18.9797 16.186 17.7423 15.2386 16.157C14.3106 14.5523 13.8466 12.7543 13.8466 10.763C13.8466 8.77167 14.3106 6.98333 15.2386 5.398C16.186 3.81267 17.4523 2.57533 19.0376 1.686C20.6423 0.796666 22.4016 0.352 24.3156 0.352C26.2296 0.352 27.9793 0.796666 29.5646 1.686C31.1693 2.57533 32.426 3.81267 33.3346 5.398C34.2626 6.98333 34.7266 8.77167 34.7266 10.763C34.7266 12.7543 34.2626 14.5523 33.3346 16.157C32.4066 17.7423 31.15 18.9797 29.5646 19.869C27.9793 20.7583 26.2296 21.203 24.3156 21.203ZM24.3156 16.679C25.9396 16.679 27.235 16.1377 28.2016 15.055C29.1876 13.9723 29.6807 12.5417 29.6807 10.763C29.6807 8.965 29.1876 7.53433 28.2016 6.471C27.235 5.38833 25.9396 4.847 24.3156 4.847C22.6723 4.847 21.3576 5.37867 20.3716 6.442C19.405 7.50533 18.9216 8.94567 18.9216 10.763C18.9216 12.561 19.405 14.0013 20.3716 15.084C21.3576 16.1473 22.6723 16.679 24.3156 16.679ZM50.9995 7.08C50.6322 6.40333 50.1005 5.891 49.4045 5.543C48.7278 5.17567 47.9255 4.992 46.9975 4.992C45.3928 4.992 44.1072 5.52367 43.1405 6.587C42.1738 7.631 41.6905 9.03267 41.6905 10.792C41.6905 12.6673 42.1932 14.1367 43.1985 15.2C44.2232 16.244 45.6248 16.766 47.4035 16.766C48.6215 16.766 49.6462 16.4567 50.4775 15.838C51.3282 15.2193 51.9468 14.33 52.3335 13.17H46.0405V9.516H56.8285V14.127C56.4612 15.3643 55.8328 16.5147 54.9435 17.578C54.0735 18.6413 52.9618 19.5017 51.6085 20.159C50.2552 20.8163 48.7278 21.145 47.0265 21.145C45.0158 21.145 43.2178 20.71 41.6325 19.84C40.0665 18.9507 38.8388 17.723 37.9495 16.157C37.0795 14.591 36.6445 12.8027 36.6445 10.792C36.6445 8.78133 37.0795 6.993 37.9495 5.427C38.8388 3.84167 40.0665 2.614 41.6325 1.744C43.1985 0.854666 44.9868 0.409999 46.9975 0.409999C49.4335 0.409999 51.4828 0.999665 53.1455 2.179C54.8275 3.35833 55.9392 4.992 56.4805 7.08H50.9995ZM69.2033 21.203C67.2893 21.203 65.53 20.7583 63.9253 19.869C62.34 18.9797 61.0737 17.7423 60.1263 16.157C59.1983 14.5523 58.7343 12.7543 58.7343 10.763C58.7343 8.77167 59.1983 6.98333 60.1263 5.398C61.0737 3.81267 62.34 2.57533 63.9253 1.686C65.53 0.796666 67.2893 0.352 69.2033 0.352C71.1173 0.352 72.867 0.796666 74.4523 1.686C76.057 2.57533 77.3137 3.81267 78.2223 5.398C79.1503 6.98333 79.6143 8.77167 79.6143 10.763C79.6143 12.7543 79.1503 14.5523 78.2223 16.157C77.2943 17.7423 76.0377 18.9797 74.4523 19.869C72.867 20.7583 71.1173 21.203 69.2033 21.203ZM69.2033 16.679C70.8273 16.679 72.1227 16.1377 73.0893 15.055C74.0753 13.9723 74.5683 12.5417 74.5683 10.763C74.5683 8.965 74.0753 7.53433 73.0893 6.471C72.1227 5.38833 70.8273 4.847 69.2033 4.847C67.56 4.847 66.2453 5.37867 65.2593 6.442C64.2927 7.50533 63.8093 8.94567 63.8093 10.763C63.8093 12.561 64.2927 14.0013 65.2593 15.084C66.2453 16.1473 67.56 16.679 69.2033 16.679Z" fill="#1090CB"/>
</svg>
