<svg width="80" height="62" viewBox="0 0 80 62" fill="none" xmlns="http://www.w3.org/2000/svg">
<rect width="79.7437" height="62" rx="20" fill="#EFEAFF"/>
<path d="M23.8691 21.0674H25.1001V22.0245H23.8691V21.0674Z" fill="#4628A4"/>
<path d="M26.331 21.0674H27.562V22.0245H26.331V21.0674Z" fill="#4628A4"/>
<path d="M28.793 21.0674H30.024V22.0245H28.793V21.0674Z" fill="#4628A4"/>
<path d="M24.4846 33.0309H38.0254C38.1886 33.0309 38.3452 32.9805 38.4606 32.8907C38.576 32.801 38.6409 32.6792 38.6409 32.5523V24.8957C38.6409 24.7688 38.576 24.6471 38.4606 24.5573C38.3452 24.4676 38.1886 24.4172 38.0254 24.4172H24.4846C24.3213 24.4172 24.1648 24.4676 24.0494 24.5573C23.9339 24.6471 23.8691 24.7688 23.8691 24.8957V32.5523C23.8691 32.6792 23.9339 32.801 24.0494 32.8907C24.1648 32.9805 24.3213 33.0309 24.4846 33.0309ZM25.1001 25.3742H37.4099V32.0738H25.1001V25.3742Z" fill="#4628A4"/>
<path d="M24.4846 42.1231H38.0254C38.1886 42.1231 38.3452 42.0727 38.4606 41.983C38.576 41.8932 38.6409 41.7715 38.6409 41.6446V34.4665C38.6409 34.3396 38.576 34.2179 38.4606 34.1281C38.3452 34.0384 38.1886 33.988 38.0254 33.988H24.4846C24.3213 33.988 24.1648 34.0384 24.0494 34.1281C23.9339 34.2179 23.8691 34.3396 23.8691 34.4665V41.6446C23.8691 41.7715 23.9339 41.8932 24.0494 41.983C24.1648 42.0727 24.3213 42.1231 24.4846 42.1231ZM25.1001 34.945H37.4099V41.166H25.1001V34.945Z" fill="#4628A4"/>
<path d="M49.1042 42.1231H50.3352V43.0802H49.1042V42.1231Z" fill="#4628A4"/>
<path d="M54.0281 42.1231H55.2591V43.0802H54.0281V42.1231Z" fill="#4628A4"/>
<path d="M52.1817 45.4729C51.8552 45.4729 51.5421 45.3721 51.3112 45.1926C51.0804 45.0131 50.9507 44.7696 50.9507 44.5158H49.7197C49.7197 45.0235 49.9791 45.5104 50.4408 45.8693C50.9025 46.2283 51.5287 46.43 52.1817 46.43C52.8346 46.43 53.4608 46.2283 53.9225 45.8693C54.3842 45.5104 54.6436 45.0235 54.6436 44.5158H53.4126C53.4126 44.7696 53.283 45.0131 53.0521 45.1926C52.8212 45.3721 52.5081 45.4729 52.1817 45.4729Z" fill="#4628A4"/>
<path d="M34.0246 28.3087L29.7162 26.3945C29.6226 26.3525 29.5163 26.3303 29.4082 26.3304C29.3 26.3304 29.1938 26.3526 29.1002 26.3947C29.0066 26.4368 28.9289 26.4974 28.875 26.5703C28.821 26.6431 28.7928 26.7258 28.793 26.8099V30.6382C28.7928 30.7223 28.821 30.8049 28.875 30.8778C28.9289 30.9507 29.0066 31.0112 29.1002 31.0533C29.1938 31.0954 29.3 31.1176 29.4082 31.1177C29.5163 31.1177 29.6226 31.0956 29.7162 31.0535L34.0246 29.1394C34.1188 29.0975 34.197 29.0371 34.2514 28.9641C34.3059 28.8912 34.3345 28.8083 34.3345 28.724C34.3345 28.6397 34.3059 28.5569 34.2514 28.4839C34.197 28.411 34.1188 28.3505 34.0246 28.3087ZM30.024 29.8132V27.6349L32.4761 28.724L30.024 29.8132Z" fill="#4628A4"/>
<path d="M52.7972 33.5094C52.9142 33.5095 53.0289 33.4835 53.1277 33.4347C53.2265 33.3859 53.3053 33.3162 53.3549 33.2337C53.4045 33.1513 53.4229 33.0596 53.4078 32.9693C53.3928 32.879 53.3449 32.794 53.2699 32.7241L50.1924 29.8529C50.1377 29.8018 50.0698 29.7601 49.9932 29.7305C49.9166 29.701 49.8329 29.6841 49.7474 29.6811C49.6619 29.677 49.5762 29.6874 49.4963 29.7116C49.4164 29.7357 49.3442 29.773 49.2846 29.8208L48.3816 30.5233L47.1094 29.37C47.05 29.3198 46.9778 29.2797 46.8974 29.2522C46.817 29.2248 46.7301 29.2106 46.6423 29.2106C46.5545 29.2106 46.4676 29.2248 46.3872 29.2522C46.3068 29.2797 46.2346 29.3198 46.1751 29.37L42.4822 32.7198C42.4057 32.7893 42.3565 32.8744 42.3403 32.9649C42.3241 33.0555 42.3416 33.1478 42.3907 33.2309C42.4399 33.3139 42.5186 33.3843 42.6176 33.4337C42.7166 33.483 42.8317 33.5093 42.9493 33.5094H52.7972ZM44.2874 32.5523L46.6423 30.4161L48.9971 32.5523H44.2874ZM49.6785 30.8684L51.4831 32.5523H50.6183L49.1849 31.2521L49.6785 30.8684Z" fill="#4628A4"/>
<path d="M57.7211 19.6318H22.0226C21.8594 19.6318 21.7028 19.6822 21.5874 19.7719C21.472 19.8617 21.4071 19.9834 21.4071 20.1103V43.5587C21.4071 43.6856 21.472 43.8074 21.5874 43.8971C21.7028 43.9869 21.8594 44.0373 22.0226 44.0373H46.0582C46.2173 45.258 46.9735 46.3845 48.1705 47.1842C49.3674 47.9838 50.9137 48.3954 52.4898 48.334C54.066 48.2726 55.5515 47.7428 56.6396 46.8541C57.7277 45.9654 58.3352 44.7857 58.3366 43.5587V20.1103C58.3366 19.9834 58.2717 19.8617 58.1563 19.7719C58.0409 19.6822 57.8843 19.6318 57.7211 19.6318ZM52.1817 47.387C51.2078 47.387 50.2558 47.1625 49.4461 46.7419C48.6364 46.3212 48.0052 45.7233 47.6326 45.0238C47.2599 44.3242 47.1624 43.5545 47.3524 42.8119C47.5424 42.0692 48.0113 41.3871 48.6999 40.8517C49.3886 40.3163 50.2659 39.9517 51.2211 39.804C52.1762 39.6563 53.1663 39.7321 54.066 40.0218C54.9657 40.3116 55.7347 40.8023 56.2758 41.4318C56.8168 42.0614 57.1056 42.8016 57.1056 43.5587C57.1041 44.5737 56.5849 45.5468 55.6618 46.2645C54.7387 46.9822 53.4871 47.3859 52.1817 47.387ZM46.8595 41.166H41.1028V25.3742H54.6436V39.1758C53.2588 38.703 51.6982 38.6446 50.2614 39.012C48.8246 39.3793 47.6131 40.1465 46.8595 41.166ZM57.1056 40.6999C56.7554 40.3364 56.341 40.013 55.8746 39.7395V24.8957C55.8746 24.7688 55.8098 24.6471 55.6944 24.5573C55.5789 24.4676 55.4224 24.4172 55.2591 24.4172H40.4873C40.3241 24.4172 40.1675 24.4676 40.0521 24.5573C39.9367 24.6471 39.8718 24.7688 39.8718 24.8957V41.6446C39.8718 41.7715 39.9367 41.8932 40.0521 41.983C40.1675 42.0727 40.3241 42.1231 40.4873 42.1231H46.3105C46.1841 42.4345 46.0996 42.7553 46.0582 43.0802H22.6381V23.4601H57.1056V40.6999ZM57.1056 22.503H22.6381V20.5889H57.1056V22.503Z" fill="#4628A4"/>
<path d="M26.331 35.9021H36.1789V36.8592H26.331V35.9021Z" fill="#4628A4"/>
<path d="M26.331 37.8163H36.1789V38.7733H26.331V37.8163Z" fill="#4628A4"/>
</svg>
